<?xml version="1.0" encoding="UTF-8"?>
<svg id="Calque_1" xmlns="http://www.w3.org/2000/svg" version="1.1" viewBox="0 0 72.1 13.4">
  <!-- Generator: Adobe Illustrator 29.1.0, SVG Export Plug-In . SVG Version: 2.1.0 Build 142)  -->
  <defs>
    <style>
      .st0 {
        isolation: isolate;
      }
    </style>
  </defs>
  <g id="_--IDML-2">
    <g class="st0">
      <path d="M7.5,8.1V.4h2.7v7.8c0,1.3-.2,2.4-.6,3.1-.8,1.4-2.3,2.1-4.4,2.1s-3.7-.7-4.5-2.1c-.4-.8-.6-1.8-.6-3.1V.4h2.7v7.8c0,.9,0,1.5.3,1.9.3.7,1,1.1,2.1,1.1s1.8-.4,2.1-1.1c.2-.4.3-1,.3-1.9h0Z"/>
      <path d="M18.1,8.5h-2.7v4.5h-2.6V.4h5.5c1.3,0,2.3.3,3,1s1.1,1.7,1.1,3-.4,2.5-1.1,3.2c-.8.6-1.8.9-3.2.9h0ZM19.3,5.8c.3-.3.5-.8.5-1.4s-.2-1.1-.5-1.4c-.4-.3-.8-.4-1.5-.4h-2.5v3.7h2.5c.6,0,1.1-.2,1.5-.5Z"/>
      <path d="M24.4.4h2.6v10.4h6.3v2.3h-8.9s0-12.6,0-12.6Z"/>
      <path d="M40.7,13.4c-1.8,0-3.2-.5-4.1-1.5-1.3-1.2-1.9-2.9-1.9-5.2s.6-4.1,1.9-5.2c1-1,2.3-1.5,4.1-1.5s3.2.5,4.1,1.5c1.3,1.2,1.9,2.9,1.9,5.2s-.6,4-1.9,5.2c-1,1-2.3,1.5-4.1,1.5ZM43.2,10c.6-.8.9-1.9.9-3.3s-.3-2.5-.9-3.3c-.6-.8-1.4-1.2-2.5-1.2s-1.9.4-2.5,1.2-.9,1.9-.9,3.3.3,2.5.9,3.3,1.5,1.2,2.5,1.2,1.9-.4,2.5-1.2Z"/>
      <path d="M56.2,10.4h-4.7l-.9,2.6h-2.8L52.4.4h3l4.5,12.6h-2.9l-.8-2.6ZM55.4,8.2l-1.6-5-1.6,5h3.2Z"/>
      <path d="M66.9,13h-5.4V.4h5.4c.8,0,1.4,0,1.9.3.9.3,1.6.8,2.2,1.6.4.6.7,1.3.9,2,.2.7.2,1.4.2,2.1,0,1.7-.3,3.1-1,4.3-.9,1.6-2.3,2.4-4.2,2.4ZM68.9,3.6c-.4-.7-1.2-1-2.4-1h-2.4v8.2h2.4c1.2,0,2.1-.6,2.6-1.8.3-.7.4-1.5.4-2.4s-.2-2.3-.6-3Z"/>
    </g>
  </g>
</svg>